<?xml version="1.0" encoding="utf-8"?>
<!-- Generator: Adobe Illustrator 25.4.2, SVG Export Plug-In . SVG Version: 6.00 Build 0)  -->
<svg version="1.1" id="Layer_1" xmlns="http://www.w3.org/2000/svg" xmlns:xlink="http://www.w3.org/1999/xlink" x="0px" y="0px"
	 viewBox="0 0 585.3 587.6" style="enable-background:new 0 0 585.3 587.6;" xml:space="preserve">
<style type="text/css">
	.st0{clip-path:url(#SVGID_00000021081137994612347810000008657287904875677344_);}
	.st1{fill:#FFFFFF;}
	.st2{display:none;fill:none;}
</style>
<g>
	<defs>
		<rect id="SVGID_1_" width="585.3" height="585.3"/>
	</defs>
	<clipPath id="SVGID_00000021824831016803660310000000178021198262846340_">
		<use xlink:href="#SVGID_1_"  style="overflow:visible;"/>
	</clipPath>
	<g style="clip-path:url(#SVGID_00000021824831016803660310000000178021198262846340_);">
		<g>
			<path class="st1" d="M436.1,201.8c2.1-1.5,9.1-39.2,9.1-39.2l-9.1-56.8l-40.7-49l-33.7-17l-69-18.1l-31,5.7l-15,9.3
				c0,0-8.2,4.7-13.6,4c-5.4-0.7-21.7,6.4-21.7,6.4l20.5,8.8l10.6,13.9c0,0-15-8-20.4-8.5c-5.4-0.5-6.9-1.9-14.3,0
				c-4.4,1.2-14.6,11.1-14.6,11.1s7.4-1.9,14.6-0.5c7.6,1.4,11.9,10.4,11.9,10.4s-11.1-5.4-14.8-6.4c-3.8-1-14.9,1.8-14.9,1.8
				l-16.2,11.7l18.3,4l15.5,7l-29.9,5.7l-11.2,28.7l-11.2,30.2l4.8,20.1c0,0,5.9,16,5.9,17.5c0,1.5-0.5,10.8,0,12.4
				c0.5,1.6-0.5,31.5-0.5,31.5l-2.1,33l0.5,44.2l7.2,26.5l9.4,43.3l32.1,54.2l37.5,29.4l38.5,16.5c0,0,33.7-0.5,38-4.1
				c4.3-3.6,48.2-27.3,46.6-28.4c-1.6-1,31.6-32,33.2-33.5c1.6-1.5,20.3-36.7,20.3-36.7l12.9-53.2v-52.1c0,0-5.2-44.4-5.6-47
				C433.4,235.9,433.9,203.4,436.1,201.8z M433.4,297.3c-1.6,16.3-9.2,36.4-14.8,48.4c-5.6,12-20.9,25.2-20.9,31.7
				s-11.6,17.2-10,27.7c0,0-1.6,7.2-4.8,2.5c-3.2-4.7-6.7-7.1-4.7-13.3c2-6.2,0.3-11.5,2.3-11.9c2-0.4,0.4-18.6-5.2-23.2
				c-5.6-4.6-45.4-21.3-45.4-21.3s-11.2,7.3-15.6,5c-4.4-2.3-4,13.2-1.6,13.2c2.4,0,13.7,3.5,18.5,5.8c4.8,2.3,21.7,6.6,23.7,5.8
				c2-0.8,6.8,14.7,5.2,15.9c-1.6,1.2-2.8,5-3.2,6.6c-0.4,1.5,10.4,17.4,9.2,20.1c-1.2,2.7-7.6,4.6-12.8,9.3
				c-5.2,4.7-25.7,24-32.5,19.8c-6.8-4.3-3.6-21.3-2.8-25.5s-2-13.2-2.4-15.5c-0.4-2.3-15.6-0.4-15.6-0.4s2.8,22.1-0.4,27.5
				c-3.2,5.4,2.8,14,0,14.5c-2.8,0.6-10.4,6-11.6,0c-1.2-6-24.5-25.8-24.5-21.5c0,4.3-10.8-6.6-11.2-9.7c-0.4-3.1-1.6-10.1-0.4-15.5
				c1.2-5.4,1.2-7,3.6-14.3c2.4-7.4-4-9.7,5.6-10.8c9.6-1.2,20.9-0.8,21.7-2.7c0.8-1.9,6-3.9,12-4.6c6-0.8,5.6-3.5,7.8-4.6
				c2.2-1.2-4.2-12.4-4.2-12.4s-12.8-2.7-15.6-3.5c-2.8-0.8-14.1-3.1-14.1-3.1l-10,13.2c0,0-16.1,5.4-16.5,10.1
				c-0.4,4.6-6,15.5-6,17s3.6,9.7-1.2,14.3c-4.8,4.7-6,12-7.6,7c-1.6-5-1.2-0.8-5.6-11.6c-4.4-10.8-4.8-15.5-4.8-15.5
				s-3.2-16.2-6.4-19.7c-3.2-3.5-16.9-14.3-17.3-16.6c-0.4-2.3-10.8-24-10.8-24l-11.2-13.9c0.1-0.6,0.2-1.3,0.2-2
				c0.8-8.1-0.2-19.1-0.2-19.1s-0.2-6,4.2-23.8c4.4-17.8,3.2-17.4,4.8-31c1.6-13.5,5.8-57.3,5-64.6c-0.8-7.4,8.4-24.8,14-32.1
				c5.6-7.4,22.1-13.5,26.1-14.3c4-0.8,25.3-8.1,29.3-2.3c4,5.8,14,5,16.9,3.5c2.8-1.5,10-5.4,13.6-1.2c3.6,4.3,22.9,20.5,41.7,8.9
				c18.9-11.6,37.7-10.8,37.7-10.8s10.4-3.5,21.7,3.5c11.2,7,21.3,22.6,21.3,22.6s8,15.7,9.2,22.7c1.2,7,4.8,15.5,4,24.4
				c-0.8,8.9,4.4,9.8,3.2,20c-1.2,10.2-0.4,48.1,3.2,54.3C430.6,262.1,435,281,433.4,297.3z"/>
			<path class="st2" d="M433.4,297.3c-1.6,16.3-9.2,36.4-14.8,48.4c-5.6,12-20.9,25.2-20.9,31.7s-12,24-10.4,34.5
				c0,0-0.4,8.1-3.6,3.5c-3.2-4.7-8.4-10.8-6.4-17c2-6.2,1.2-15.5,3.2-15.9c2-0.4,0.4-18.6-5.2-23.2c-5.6-4.6-45.4-21.3-45.4-21.3
				s-11.2,7.3-15.6,5c-4.4-2.3-4,13.2-1.6,13.2c2.4,0,13.7,3.5,18.5,5.8c4.8,2.3,21.7,6.6,23.7,5.8c2-0.8,6.8,14.7,5.2,15.9
				c-1.6,1.2-2.8,5-3.2,6.6c-0.4,1.5,10.4,17.4,9.2,20.1c-1.2,2.7-7.6,4.6-12.8,9.3c-5.2,4.7-25.7,24-32.5,19.8
				c-6.8-4.3-3.6-21.3-2.8-25.5s-2-13.2-2.4-15.5c-0.4-2.3-15.6-0.4-15.6-0.4s2.8,22.1-0.4,27.5c-3.2,5.4,2.8,14,0,14.5
				c-2.8,0.6-10.4,6-11.6,0c-1.2-6-24.5-25.8-24.5-21.5c0,4.3-10.8-6.6-11.2-9.7c-0.4-3.1-1.6-10.1-0.4-15.5c1.2-5.4,1.2-7,3.6-14.3
				c2.4-7.4-4-9.7,5.6-10.8c9.6-1.2,20.9-0.8,21.7-2.7c0.8-1.9,6-3.9,12-4.6c6-0.8,5.6-3.5,7.8-4.6c2.2-1.2-4.2-12.4-4.2-12.4
				s-12.8-2.7-15.6-3.5c-2.8-0.8-14.1-3.1-14.1-3.1l-10,13.2c0,0-16.1,5.4-16.5,10.1c-0.4,4.6-6,15.5-6,17s3.6,9.7-1.2,14.3
				c-4.8,4.7-6,12-7.6,7c-1.6-5-1.2-0.8-5.6-11.6c-4.4-10.8-4.8-15.5-4.8-15.5s-3.2-16.2-6.4-19.7c-3.2-3.5-16.9-14.3-17.3-16.6
				c-0.4-2.3-10.8-24-10.8-24l-11.2-13.9c0.1-0.6,0.2-1.3,0.2-2c0.8-8.1-0.2-19.1-0.2-19.1s-0.2-6,4.2-23.8
				c4.4-17.8,3.2-17.4,4.8-31c1.6-13.5,5.8-57.3,5-64.6c-0.8-7.4,8.4-24.8,14-32.1c5.6-7.4,22.1-13.5,26.1-14.3
				c4-0.8,25.3-8.1,29.3-2.3c4,5.8,14,5,16.9,3.5c2.8-1.5,10-5.4,13.6-1.2c3.6,4.3,22.9,20.5,41.7,8.9
				c18.9-11.6,37.7-10.8,37.7-10.8s10.4-3.5,21.7,3.5c11.2,7,21.3,22.6,21.3,22.6s8,15.7,9.2,22.7c1.2,7,4.8,15.5,4,24.4
				c-0.8,8.9,4.4,9.8,3.2,20c-1.2,10.2-0.4,48.1,3.2,54.3C430.6,262.1,435,281,433.4,297.3z"/>
			<path class="st1" d="M128.3,310.5L128.3,310.5c-19.3-1.4-33.9-18.2-32.5-37.5l4.5-62.3c1.4-19.3,18.2-33.9,37.5-32.5l0,0
				c10.2,0.7,17.9,9.6,17.2,19.9l-6.9,95.2C147.4,303.6,138.5,311.3,128.3,310.5z"/>
			<path class="st1" d="M472,295.1L472,295.1c19.3-1.4,33.9-18.2,32.5-37.5l-4.5-62.3c-1.4-19.3-18.2-33.9-37.5-32.5l0,0
				c-10.2,0.7-17.9,9.6-17.2,19.9l6.9,95.2C452.8,288.2,461.7,295.9,472,295.1z"/>
			<g>
				<path class="st1" d="M465.1,82.9c-44-45.9-102.5-71.2-164.7-71.2c-62.2,0-120.7,25.3-164.7,71.2C96.4,123.8,73,176.8,68.4,233.8
					c-0.3,3.6,2.6,6.7,6.2,6.7h7.5c3.3,0,5.9-2.5,6.2-5.7C97.9,121.1,189.3,31.7,300.4,31.7c111,0,202.4,89.5,211.9,203.1
					c0.3,3.2,3,5.7,6.2,5.7h7.5c3.6,0,6.5-3.1,6.2-6.7C527.7,176.8,504.3,123.8,465.1,82.9z"/>
			</g>
			<path class="st1" d="M207.2,218.6l16.6-12.8l24-7.4l22.6,1.9l12.9,5.4v5l-12,2.7c0,0-16.2,4.6-19.4,2.3s-17.1-2.7-17.1-2.7
				l-19.4,3.5l-8.3,7.4v-1.9V218.6z"/>
			<path class="st1" d="M328.1,210.5c0.6-1,3.9-6.6,5.4-7.4c1.5-0.8,9.7-5,10.6-5.6s11.8,0,11.8,0l7.9,1.9l16.1,7.4l19.5,8.9l1,4.8
				c0,0-7.9-0.6-8.9-0.8c-1-0.2-9.3-3.7-9.3-3.7l-19-4.6c0,0-9.7-1-10.5-0.4s-9.9,1.7-9.9,1.7s-6.4,1-7,1.4
				c-0.6,0.4-5.4,1.7-5.4,1.7l-2.5-1.9V210.5z"/>
		</g>
		<g>
			<path class="st1" d="M160.3,457.4L132.8,483c-4.1,3.8-6.8,6.3-8.1,7.3c-1.3,1-2.7,1.6-4.3,1.8c-1.6,0.2-3.1-0.1-4.6-1
				s-3.3-2.4-5.5-4.8l-5-5.4l7.2-6.7c0.5,0.7,1,1.2,1.2,1.5c0.7,0.8,1.5,1.2,2.2,1.3c0.8,0.1,1.5-0.1,2.1-0.5
				c0.6-0.4,1.7-1.4,3.2-2.8l29-27L160.3,457.4z"/>
			<path class="st1" d="M161.8,459.5l8,6.6c5.3,4.4,8.8,7.6,10.3,9.5c1.5,2,2.2,4.3,2,6.9c-0.2,2.7-1.8,5.9-4.9,9.6
				c-2.8,3.4-5.1,5.3-6.9,5.8s-4-0.2-6.7-2c1.8,2.4,2.7,4.4,2.7,5.9c0,1.6-0.2,2.8-0.7,3.7c-0.5,0.9-2.1,3.2-5,6.7l-9.4,11.5
				l-10.5-8.6l11.9-14.4c1.9-2.3,2.9-3.9,3-4.8c0.1-0.9-0.6-1.9-2.2-3.2l-16.1,19.6l-11.3-9.3L161.8,459.5z M167,476.2l-7.9,9.7
				c1.3,1,2.3,1.6,3.1,1.7c0.8,0.1,2-0.9,3.6-2.8l2-2.4c1.1-1.4,1.6-2.5,1.5-3.3C169,478.3,168.3,477.3,167,476.2z"/>
			<path class="st1" d="M207.4,516l-12.7-7.2l2.5-4.4c1.6-2.8,2.5-4.6,2.6-5.5c0.2-0.8-0.2-1.5-1.1-2c-0.8-0.4-1.5-0.4-2.1,0
				c-0.6,0.4-1.6,1.9-3.1,4.4l-13.3,23.5c-1.2,2.2-1.9,3.7-2,4.6c-0.1,0.9,0.3,1.5,1.1,2c0.9,0.5,1.8,0.5,2.6-0.1
				c0.8-0.6,1.8-2,3.1-4.3l3.3-5.8l-2.6-1.5l4.2-7.4l14.9,8.5l-14.9,26.2l-8-4.5l0.8-4.2c-1.7,1-3.5,1.5-5.2,1.5
				c-1.8,0-3.5-0.5-5.3-1.5c-2.1-1.2-3.8-2.9-5.1-5c-1.3-2.1-2-4.2-2.1-6.3c-0.1-2.1,0.2-4,0.9-5.8c0.7-1.8,2-4.4,3.9-7.8l8.3-14.5
				c2.7-4.7,4.8-7.9,6.5-9.7c1.7-1.8,4.3-2.9,7.6-3.3c3.4-0.4,7,0.5,10.8,2.6c3.7,2.1,6.4,4.6,8,7.6c1.6,2.9,2.2,5.7,1.7,8.2
				s-1.8,5.8-4.1,9.8L207.4,516z"/>
			<path class="st1" d="M220.9,529.3l-12.3-4.7l1.1-2.9c1.3-3.3,2.6-5.8,4.1-7.3c1.5-1.5,3.6-2.5,6.5-3c2.8-0.5,6.1,0,9.8,1.4
				c4.4,1.7,7.5,3.8,9.1,6.2c1.7,2.4,2.3,4.9,1.9,7.3c-0.4,2.5-2,7.2-4.7,14.4l-8.2,21.6l-12.8-4.9l1.5-3.8c-1.4,1.2-2.9,2-4.4,2.3
				c-1.6,0.3-3.2,0.1-5-0.6c-2.3-0.9-4.2-2.3-5.6-4.3s-1.3-5.2,0.3-9.6l1.3-3.5c1.2-3.2,2.6-5.2,4-6c1.5-0.8,4.5-1.2,9.1-1.2
				c5,0,7.7-0.3,8.2-0.8c0.5-0.5,1.1-1.6,1.8-3.4c0.9-2.3,1.2-3.8,1.2-4.6c-0.1-0.8-0.5-1.4-1.3-1.7c-0.9-0.3-1.5-0.3-2,0.2
				s-1.1,1.9-2,4.3L220.9,529.3z M222.8,536.8c-2.7,0.7-4.4,1.6-5.1,2.5c-0.7,0.9-1.5,2.3-2.2,4.3c-0.8,2.2-1.3,3.7-1.2,4.5
				c0,0.8,0.5,1.3,1.4,1.6c0.8,0.3,1.5,0.3,1.9-0.2s1.1-1.7,1.9-3.9L222.8,536.8z"/>
			<path class="st1" d="M260.2,523l-1,4.3c1.4-1.5,2.9-2.6,4.5-3.2c1.6-0.6,3.4-0.7,5.3-0.4c3.7,0.6,6.3,2.8,7.9,6.6
				c1.5-1.5,3-2.6,4.6-3.2s3.3-0.8,5.1-0.5c2.4,0.4,4.2,1.3,5.5,2.7c1.3,1.4,2.1,3,2.3,4.7c0.2,1.7-0.1,4.5-0.7,8.2l-5.5,32.3
				l-13.4-2.3l5-29.6c0.7-3.9,0.9-6.3,0.8-7.3c-0.1-1-0.6-1.5-1.6-1.7c-1-0.2-1.7,0.2-2.1,1c-0.4,0.9-1,3.2-1.7,7.2l-5,29.6
				l-13.4-2.3l4.9-28.9c0.8-4.5,1.1-7.1,1-8.1c-0.1-0.9-0.6-1.5-1.6-1.6c-0.6-0.1-1.2,0-1.7,0.4c-0.5,0.4-0.9,0.9-1,1.6
				c-0.2,0.7-0.4,2.1-0.8,4.3l-5.4,31.5l-13.4-2.3l7.7-45.5L260.2,523z"/>
			<path class="st1" d="M313.1,528l-0.4,46.1l-14.5-0.1l0.4-46.1L313.1,528z M313.2,517.9l-0.1,7.3l-14.5-0.1l0.1-7.3L313.2,517.9z"
				/>
			<path class="st1" d="M330.8,526.8l0.2,4.2c0.8-1.8,1.9-3.2,3.3-4.2c1.4-1,3-1.6,4.9-1.8c2.4-0.3,4.4,0.1,6.1,1
				c1.6,1,2.8,2.3,3.4,3.9c0.6,1.7,1.2,4.5,1.6,8.5l3.6,32.1l-13.9,1.6l-3.6-31.7c-0.4-3.2-0.7-5.1-1-5.7c-0.3-0.7-0.9-0.9-1.8-0.8
				c-1,0.1-1.6,0.6-1.7,1.4c-0.2,0.8-0.1,3,0.3,6.4l3.5,31l-13.9,1.6l-5.2-45.8L330.8,526.8z"/>
			<path class="st1" d="M382.2,515.7l9.5,34.2c1.3,4.6,2,7.6,2.2,9c0.2,1.4-0.2,3-1.1,4.9c-0.9,1.9-2.4,3.5-4.5,4.9
				c-2.1,1.4-4.9,2.6-8.4,3.6c-4.3,1.2-8,1.4-11,0.7c-3-0.7-5.2-3.2-6.4-7.5l13.1-3.6c0.5,2,1.5,2.7,3,2.4c1-0.3,1.6-0.8,1.8-1.5
				c0.2-0.7,0-2-0.5-3.9l-0.9-3.4c-0.9,1.4-1.9,2.5-3,3.4c-1.1,0.9-2.4,1.5-3.8,1.9c-2.4,0.7-4.6,0.7-6.4,0.2s-3.3-1.5-4.3-3
				c-1-1.4-1.9-3.6-2.8-6.6l-4.5-16.1c-1.2-4.2-1.3-7.5-0.2-9.7c1-2.3,3.1-3.8,6.2-4.7c1.7-0.5,3.3-0.6,4.9-0.2
				c1.6,0.3,3.1,1,4.6,2.1l0-3.6L382.2,515.7z M371.9,531.2c-0.6-2-1-3.3-1.4-3.8c-0.4-0.5-1-0.6-1.8-0.4c-0.8,0.2-1.2,0.7-1.4,1.4
				c-0.1,0.7,0,2,0.6,3.9l4.1,14.9c0.6,2,1,3.2,1.4,3.8c0.4,0.5,1,0.7,1.8,0.5c0.9-0.2,1.4-0.8,1.4-1.6c0.1-0.8-0.2-2.4-0.9-5
				L371.9,531.2z"/>
			<path class="st1" d="M398,543l12.8-5.9c1.1,2.4,1.8,3.9,2.2,4.5s0.8,1,1.5,1.2c0.6,0.2,1.4,0.1,2.1-0.2c0.7-0.3,1.1-0.7,1.3-1.3
				c0.2-0.6,0.2-1.2,0-1.9c-0.2-0.7-0.8-1.9-1.7-3.9l-3.7-8.1c0,1.7-0.5,3.1-1.4,4.4c-0.9,1.3-2.4,2.3-4.2,3.2
				c-2.3,1.1-4.7,1.4-7.1,1c-2.4-0.4-4.2-1.4-5.5-3c-1.3-1.5-2.6-3.8-4-6.8l-1.9-4.1c-1.6-3.6-2.7-6.3-3.2-8.2s-0.5-3.8,0-5.9
				c0.5-2,1.6-3.9,3.3-5.7c1.7-1.8,3.9-3.3,6.7-4.6c3.4-1.6,6.4-2.4,9.1-2.4c2.6-0.1,4.9,0.5,7,1.8c2,1.2,3.6,2.8,4.7,4.6
				c1.1,1.9,2.9,5.6,5.5,11.2l3.3,7.1c2.8,6.1,4.6,10.2,5.4,12.3c0.8,2.1,0.9,4.4,0.5,6.8c-0.5,2.4-1.6,4.6-3.4,6.5s-4.1,3.6-7,4.9
				c-3.6,1.7-6.8,2.4-9.6,2.3c-2.8-0.1-5.2-1-7.2-2.6C401.2,548.7,399.5,546.2,398,543z M403.5,521.2c1,2.1,1.9,3.3,2.7,3.6
				c0.8,0.2,1.5,0.2,2.1,0c0.9-0.4,1.4-1,1.5-1.9c0.1-0.8-0.3-2.2-1.1-4.1l-4.3-9.2c-1-2.3-1.9-3.6-2.6-4.2
				c-0.7-0.5-1.5-0.6-2.4-0.1c-0.5,0.3-1,0.8-1.3,1.6c-0.3,0.8,0,2.4,1.1,4.7L403.5,521.2z"/>
			<path class="st1" d="M448.1,496c2.2-0.5,4.2-0.3,6,0.4c1.9,0.7,4.5,3.7,8,8.9c2.5,3.8,4.1,6.8,4.5,9.1s0,4.7-1.3,7.3
				c-1.3,2.6-3.8,5.1-7.3,7.5c-3.5,2.3-6.6,3.6-9.3,3.9c-2.8,0.3-5.2-0.2-7.3-1.4c-2.1-1.2-4.6-3.9-7.4-8.1
				c-1.9-2.8-3.3-5.4-4.3-7.8c-1-2.4-0.7-4.9,0.7-7.7c-1.9,0.3-3.7-0.1-5.5-1.1c-1.7-1-3.4-2.7-5-5c-2.7-4-3.6-7.8-2.8-11.3
				c0.9-3.5,3.5-6.8,8-9.8c5.1-3.5,9.4-4.8,12.8-4c3.4,0.8,6.4,3.2,9.1,7.1c1.7,2.5,2.6,4.5,2.7,6.1S449.4,493.6,448.1,496z
				 M434.8,490.5c-1.1-1.6-1.9-2.5-2.5-2.8c-0.6-0.3-1.3-0.2-2.1,0.3c-0.8,0.5-1.1,1.1-1,1.9c0.1,0.7,0.7,1.8,1.7,3.3l2.4,3.5
				c0.9,1.4,1.8,2.3,2.4,2.6c0.7,0.3,1.4,0.2,2.1-0.2c0.8-0.5,1.1-1.1,1-1.8c-0.1-0.7-0.7-1.9-1.8-3.5L434.8,490.5z M448.1,509.7
				c-1.2-1.8-2.2-2.8-3-3.2c-0.8-0.3-1.5-0.2-2.3,0.3c-0.8,0.5-1.1,1.2-1.1,2c0,0.8,0.7,2.1,1.9,3.9l4.1,6c1.4,2,2.4,3.2,3.2,3.5
				s1.5,0.2,2.4-0.3c0.8-0.6,1.2-1.2,1.1-2c-0.1-0.8-0.9-2.2-2.2-4.2L448.1,509.7z"/>
			<path class="st1" d="M469,501.6l10.2-9.7c1.8,1.9,3,3.1,3.5,3.5c0.5,0.4,1.1,0.7,1.8,0.7c0.7,0,1.3-0.3,2-0.9
				c0.5-0.5,0.8-1.1,0.8-1.7c0-0.6-0.2-1.2-0.6-1.8c-0.4-0.5-1.4-1.6-2.8-3.1l-6.2-6.5c0.5,1.6,0.6,3.1,0.1,4.6
				c-0.5,1.5-1.5,3-3,4.4c-1.9,1.8-4,2.8-6.4,3.2c-2.4,0.3-4.4,0-6.2-1c-1.7-1-3.7-2.8-6-5.2l-3.1-3.2c-2.7-2.9-4.6-5.1-5.7-6.7
				c-1.1-1.6-1.7-3.5-1.9-5.5c-0.2-2.1,0.2-4.2,1.3-6.5c1-2.2,2.7-4.4,4.9-6.5c2.7-2.6,5.3-4.3,7.8-5.2c2.5-0.9,4.8-1.1,7.2-0.6
				c2.3,0.5,4.3,1.5,5.9,2.9c1.6,1.4,4.6,4.4,8.8,8.9l5.4,5.7c4.6,4.9,7.6,8.2,9.1,9.9c1.4,1.8,2.3,3.9,2.7,6.3
				c0.4,2.4,0,4.9-1.1,7.3c-1.1,2.4-2.8,4.7-5.1,6.9c-2.9,2.7-5.7,4.5-8.4,5.3c-2.7,0.8-5.2,0.8-7.6-0.2
				C473.9,505.9,471.5,504.1,469,501.6z M467.1,479.2c1.6,1.7,2.9,2.6,3.7,2.5c0.8,0,1.5-0.3,1.9-0.7c0.7-0.7,1-1.4,0.8-2.2
				c-0.2-0.8-0.9-2-2.4-3.5l-7-7.4c-1.7-1.8-3-2.8-3.8-3.1c-0.8-0.3-1.6,0-2.3,0.6c-0.4,0.4-0.7,1.1-0.7,1.9
				c-0.1,0.9,0.8,2.3,2.6,4.1L467.1,479.2z"/>
			<path class="st1" d="M501.2,440.9c1.9-1.1,3.9-1.7,5.8-1.6c2,0.1,5.5,2,10.5,5.8c3.6,2.7,6,5.1,7.2,7.1c1.2,2,1.6,4.4,1.1,7.3
				c-0.4,2.9-1.9,6-4.5,9.4c-2.5,3.3-5,5.6-7.5,6.7s-5,1.5-7.3,1c-2.4-0.5-5.6-2.2-9.6-5.3c-2.7-2.1-4.9-4-6.6-6
				c-1.7-1.9-2.3-4.4-1.8-7.5c-1.7,0.9-3.6,1.1-5.5,0.7c-2-0.4-4.1-1.4-6.3-3.1c-3.9-2.9-6-6.2-6.3-9.8s1.1-7.5,4.4-11.8
				c3.7-4.9,7.3-7.6,10.8-7.9c3.5-0.3,7.1,0.9,10.9,3.8c2.4,1.8,3.9,3.5,4.5,4.9C501.5,436.1,501.6,438.2,501.2,440.9z M486.8,439.9
				c-1.5-1.1-2.6-1.8-3.3-1.9c-0.7-0.1-1.3,0.2-1.9,1c-0.6,0.7-0.7,1.4-0.3,2.1c0.3,0.7,1.2,1.5,2.7,2.6l3.4,2.6
				c1.4,1,2.4,1.6,3.1,1.7c0.7,0.1,1.4-0.2,1.9-0.9c0.6-0.7,0.7-1.4,0.4-2.1c-0.3-0.6-1.3-1.6-2.9-2.8L486.8,439.9z M505.7,453.8
				c-1.7-1.3-3-2-3.8-2.1s-1.5,0.3-2.1,1c-0.6,0.7-0.7,1.5-0.4,2.2c0.3,0.7,1.3,1.8,3.1,3.1l5.8,4.4c1.9,1.5,3.3,2.2,4.2,2.3
				c0.8,0.1,1.5-0.3,2.1-1.1c0.6-0.8,0.7-1.5,0.4-2.2c-0.4-0.7-1.5-1.8-3.5-3.3L505.7,453.8z"/>
		</g>
	</g>
</g>
</svg>
